<?xml version="1.0" encoding="UTF-8" standalone="no"?>
<!DOCTYPE svg PUBLIC "-//W3C//DTD SVG 1.1//EN" "http://www.w3.org/Graphics/SVG/1.1/DTD/svg11.dtd">
<svg width="100%" height="100%" viewBox="0 0 317 54" version="1.1" xmlns="http://www.w3.org/2000/svg" xmlns:xlink="http://www.w3.org/1999/xlink" xml:space="preserve" xmlns:serif="http://www.serif.com/" style="fill-rule:evenodd;clip-rule:evenodd;stroke-linejoin:round;stroke-miterlimit:2;">
    <g>
        <g transform="matrix(3.83393,0,0,3.83393,-289.111,-89.2205)">
            <path d="M108.239,34.655L111.338,25.925L113.295,25.925L116.401,34.655L114.696,34.655L113.16,30.079C113.008,29.599 112.849,29.081 112.683,28.527C112.517,27.972 112.326,27.321 112.112,26.575L112.522,26.575C112.311,27.321 112.121,27.972 111.953,28.527C111.785,29.081 111.623,29.599 111.467,30.079L109.914,34.655L108.239,34.655ZM110.073,32.552L110.073,31.28L114.573,31.28L114.573,32.552L110.073,32.552Z" style="fill-rule:nonzero;"/>
            <path d="M119.424,34.773C118.991,34.773 118.607,34.678 118.273,34.488C117.939,34.299 117.678,34.022 117.491,33.656C117.303,33.291 117.209,32.845 117.209,32.318L117.209,28.386L118.703,28.386L118.703,32.083C118.703,32.532 118.814,32.876 119.034,33.114C119.255,33.353 119.563,33.472 119.957,33.472C120.219,33.472 120.452,33.418 120.658,33.311C120.863,33.203 121.025,33.037 121.144,32.813C121.263,32.588 121.323,32.304 121.323,31.96L121.323,28.386L122.811,28.386L122.811,34.655L121.358,34.655L121.352,33.073L121.604,33.073C121.408,33.624 121.13,34.045 120.769,34.336C120.408,34.627 119.959,34.773 119.424,34.773Z" style="fill-rule:nonzero;"/>
            <path d="M127.405,28.386L127.405,29.575L123.608,29.575L123.608,28.386L127.405,28.386ZM124.651,26.728L126.145,26.728L126.145,32.868C126.145,33.091 126.191,33.247 126.283,33.337C126.374,33.427 126.539,33.472 126.778,33.472C126.867,33.472 126.973,33.47 127.094,33.466C127.215,33.462 127.315,33.46 127.393,33.46L127.446,34.644C127.328,34.655 127.186,34.663 127.018,34.667C126.85,34.671 126.686,34.673 126.526,34.673C125.893,34.673 125.422,34.539 125.114,34.272C124.805,34.004 124.651,33.601 124.651,33.062L124.651,26.728Z" style="fill-rule:nonzero;"/>
            <path d="M131.073,34.796C130.463,34.796 129.927,34.659 129.464,34.386C129.001,34.112 128.642,33.731 128.386,33.24C128.13,32.75 128.002,32.181 128.002,31.532C128.002,30.884 128.13,30.314 128.386,29.821C128.642,29.329 129.001,28.946 129.464,28.67C129.927,28.395 130.463,28.257 131.073,28.257C131.69,28.257 132.228,28.395 132.687,28.67C133.146,28.946 133.503,29.329 133.759,29.821C134.015,30.314 134.143,30.884 134.143,31.532C134.143,32.181 134.015,32.75 133.759,33.24C133.503,33.731 133.146,34.112 132.687,34.386C132.228,34.659 131.69,34.796 131.073,34.796ZM131.073,33.56C131.401,33.56 131.681,33.476 131.913,33.308C132.146,33.14 132.324,32.904 132.449,32.599C132.574,32.294 132.637,31.939 132.637,31.532C132.637,31.122 132.574,30.765 132.449,30.46C132.324,30.155 132.146,29.918 131.913,29.748C131.681,29.578 131.401,29.493 131.073,29.493C130.752,29.493 130.475,29.578 130.241,29.748C130.006,29.918 129.826,30.155 129.701,30.46C129.576,30.765 129.514,31.122 129.514,31.532C129.514,31.943 129.576,32.299 129.701,32.602C129.826,32.904 130.005,33.14 130.238,33.308C130.47,33.476 130.748,33.56 131.073,33.56Z" style="fill-rule:nonzero;"/>
            <path d="M138.567,28.386L138.567,29.575L134.653,29.575L134.653,28.386L138.567,28.386ZM135.783,34.655L135.783,27.548C135.783,27.173 135.86,26.859 136.012,26.605C136.164,26.351 136.384,26.158 136.671,26.028C136.958,25.897 137.301,25.831 137.699,25.831C137.903,25.831 138.091,25.836 138.265,25.846C138.439,25.856 138.561,25.864 138.631,25.872L138.561,27.062C138.51,27.058 138.425,27.053 138.306,27.047C138.187,27.041 138.08,27.038 137.987,27.038C137.729,27.038 137.545,27.096 137.436,27.211C137.326,27.326 137.272,27.511 137.272,27.765L137.272,34.655L135.783,34.655Z" style="fill-rule:nonzero;"/>
            <rect x="139.528" y="25.925" width="1.494" height="8.73" style="fill-rule:nonzero;"/>
            <path d="M145.176,34.796C144.567,34.796 144.031,34.659 143.568,34.386C143.105,34.112 142.745,33.731 142.49,33.24C142.234,32.75 142.106,32.181 142.106,31.532C142.106,30.884 142.234,30.314 142.49,29.821C142.745,29.329 143.105,28.946 143.568,28.67C144.031,28.395 144.567,28.257 145.176,28.257C145.793,28.257 146.331,28.395 146.79,28.67C147.249,28.946 147.607,29.329 147.863,29.821C148.118,30.314 148.246,30.884 148.246,31.532C148.246,32.181 148.118,32.75 147.863,33.24C147.607,33.731 147.249,34.112 146.79,34.386C146.331,34.659 145.793,34.796 145.176,34.796ZM145.176,33.56C145.504,33.56 145.784,33.476 146.017,33.308C146.249,33.14 146.428,32.904 146.553,32.599C146.678,32.294 146.741,31.939 146.741,31.532C146.741,31.122 146.678,30.765 146.553,30.46C146.428,30.155 146.249,29.918 146.017,29.748C145.784,29.578 145.504,29.493 145.176,29.493C144.856,29.493 144.578,29.578 144.344,29.748C144.11,29.918 143.93,30.155 143.805,30.46C143.68,30.765 143.617,31.122 143.617,31.532C143.617,31.943 143.68,32.299 143.805,32.602C143.93,32.904 144.109,33.14 144.341,33.308C144.574,33.476 144.852,33.56 145.176,33.56Z" style="fill-rule:nonzero;"/>
            <path d="M150.532,34.655L148.61,28.386L150.174,28.386L150.813,30.782C150.922,31.216 151.032,31.668 151.141,32.139C151.25,32.61 151.36,33.087 151.469,33.571L151.264,33.571C151.377,33.091 151.491,32.614 151.607,32.142C151.722,31.669 151.838,31.216 151.955,30.782L152.612,28.386L154,28.386L154.645,30.782C154.762,31.216 154.878,31.669 154.993,32.142C155.109,32.614 155.221,33.091 155.33,33.571L155.125,33.571C155.235,33.091 155.343,32.615 155.45,32.145C155.558,31.674 155.666,31.22 155.776,30.782L156.42,28.386L158.002,28.386L156.074,34.655L154.539,34.655L153.783,32.06C153.713,31.802 153.643,31.536 153.573,31.263C153.502,30.989 153.433,30.713 153.365,30.434C153.296,30.154 153.227,29.88 153.157,29.611L153.455,29.611C153.385,29.88 153.315,30.154 153.244,30.434C153.174,30.713 153.105,30.989 153.036,31.263C152.968,31.536 152.895,31.802 152.817,32.06L152.055,34.655L150.532,34.655Z" style="fill-rule:nonzero;"/>
        </g>
        <path d="M75.705,0C90.458,0 102.435,11.977 102.435,26.73C102.435,41.482 90.458,53.459 75.705,53.459C60.953,53.459 48.975,41.482 48.975,26.73C48.975,11.977 60.953,0 75.705,0ZM87.143,16.777L72.386,31.534L64.562,23.709L60.584,27.687L69.58,36.682L74.854,36.682L90.826,20.71L87.143,16.777ZM12.575,49.403C5.025,44.677 0,36.285 0,26.73C0,17.174 5.025,8.782 12.575,4.056L12.575,49.403ZM43.733,53.448C29.347,53.027 17.797,41.217 17.797,26.73C17.797,12.243 29.347,0.432 43.733,0.012L43.733,53.448Z" style="fill:url(#_Linear1);"/>
    </g>
    <defs>
        <linearGradient id="_Linear1" x1="0" y1="0" x2="1" y2="0" gradientUnits="userSpaceOnUse" gradientTransform="matrix(81.0302,-51.2975,51.2975,81.0302,4.92524,41.4958)"><stop offset="0" style="stop-color:rgb(0,12,121);stop-opacity:1"/><stop offset="0.3" style="stop-color:rgb(20,51,214);stop-opacity:1"/><stop offset="0.6" style="stop-color:rgb(0,105,255);stop-opacity:1"/><stop offset="1" style="stop-color:rgb(235,191,235);stop-opacity:1"/></linearGradient>
    </defs>
</svg>
